<svg xmlns="http://www.w3.org/2000/svg" viewBox="0 0 215.75 215.75"><defs><style>.cls-1{fill:#de7921;}.cls-2,.cls-3{fill:#fff;}.cls-3{font-size:24px;font-family:Heebo-Regular, Heebo;}</style></defs><title>Asset 19</title><g id="Layer_2" data-name="Layer 2"><g id="Layer_1-2" data-name="Layer 1"><rect class="cls-1" width="215.75" height="215.75"/><rect class="cls-2" x="91.87" y="133.09" width="40" height="2"/><text class="cls-3" transform="translate(37.38 162.41)">הזוחה תדרוהל</text><path class="cls-2" d="M82.24,84q0-13.06,0-26.12a11.87,11.87,0,0,1,4.81-10,11.71,11.71,0,0,1,7.28-2.35c7.67,0,15.35,0,23,0a8.51,8.51,0,0,1,5.72,2.46c1.73,1.51,3.39,3.11,5,4.73q5,4.93,9.84,9.94c.58.59,1.08,1.25,1.59,1.9a9,9,0,0,1,2,5.89c0,13.28,0,26.56,0,39.84a11.7,11.7,0,0,1-6.11,10.75,11.87,11.87,0,0,1-6.11,1.51c-11.6,0-23.19,0-34.79,0a11.74,11.74,0,0,1-12-9.72,14.56,14.56,0,0,1-.24-2.82Q82.22,97.06,82.24,84Zm5.87.06q0,12.79,0,25.58c0,.41,0,.83,0,1.24a5.9,5.9,0,0,0,6.11,5.83c11.74,0,23.49,0,35.23,0a6.07,6.07,0,0,0,3.86-1.31,6.28,6.28,0,0,0,2.31-5.31q0-18.59,0-37.18c0-.35-.06-.7-.08-1.05a2.46,2.46,0,0,0-2.13-2.36,5.43,5.43,0,0,0-1.13-.18c-1.18-.06-2.36-.11-3.54-.12-12.46-.12-10.82,1.62-10.92-11,0-1.09,0-2.19-.07-3.27a7.78,7.78,0,0,0-.45-2.06,2.14,2.14,0,0,0-2.17-1.49H94.36a6.13,6.13,0,0,0-3.95,1.31,6.31,6.31,0,0,0-2.3,5.31Q88.13,71.09,88.11,84.1Z"/><path class="cls-2" d="M111.78,81.09H97.35a2.94,2.94,0,0,1-3.14-2.41,2.83,2.83,0,0,1,2.32-3.31,5.43,5.43,0,0,1,1.05-.1h28.69a3.05,3.05,0,0,1,2.92,1.48,2.87,2.87,0,0,1-2.62,4.34c-2,.05-4.07,0-6.11,0Z"/><path class="cls-2" d="M111.82,104.81c-4.81,0-9.61,0-14.42,0a2.91,2.91,0,0,1-3.22-2.71A2.88,2.88,0,0,1,96.64,99a6.4,6.4,0,0,1,1,0q14.29,0,28.57,0a3,3,0,0,1,3.19,1.87,2.82,2.82,0,0,1-2,3.84,6.63,6.63,0,0,1-1.4.12Z"/><path class="cls-2" d="M109,87.12c3.89,0,7.78,0,11.67,0a2.92,2.92,0,0,1,2.14,4.94,3,3,0,0,1-2.33.88q-11.63,0-23.26,0a2.91,2.91,0,1,1,0-5.82C101.17,87.1,105.09,87.12,109,87.12Z"/></g></g></svg>