<svg xmlns="http://www.w3.org/2000/svg" viewBox="0 0 215.75 215.75"><defs><style>.cls-1{fill:#6ab086;}.cls-2,.cls-3{fill:#fff;}.cls-3{font-size:24px;font-family:Heebo-Regular, Heebo;}</style></defs><title>Asset 20</title><g id="Layer_2" data-name="Layer 2"><g id="Layer_1-2" data-name="Layer 1"><rect class="cls-1" width="215.75" height="215.75"/><rect class="cls-2" x="91.87" y="127.76" width="40" height="2"/><text class="cls-3" transform="translate(31.46 157.08)">הזוחה תא ףתש</text><path id="_Compound_Path_" data-name="&lt;Compound Path&gt;" class="cls-2" d="M126.35,87.85a14.24,14.24,0,0,0-9.75,3.84l-9.83-5.94a17.18,17.18,0,0,0,0-10.73l9.84-6a14.27,14.27,0,1,0-4-6.63l-9.84,6a17.19,17.19,0,1,0,0,24l9.84,6a14.27,14.27,0,1,0,13.74-10.46ZM84.82,80.39a2.56,2.56,0,0,1-5.12,0A10.76,10.76,0,0,1,90.44,69.64a2.56,2.56,0,0,1,0,5.12A5.64,5.64,0,0,0,84.82,80.39Z"/></g></g></svg>