<svg xmlns="http://www.w3.org/2000/svg" viewBox="0 0 215.75 215.75"><defs><style>.cls-1{fill:#f3cc6f;}.cls-2,.cls-3{fill:#fff;}.cls-3{font-size:24px;font-family:Heebo-Regular, Heebo;}</style></defs><title>Asset 18</title><g id="Layer_2" data-name="Layer 2"><g id="Layer_1-2" data-name="Layer 1"><rect class="cls-1" width="215.75" height="215.75"/><rect class="cls-2" x="91.87" y="141.84" width="40" height="2"/><path class="cls-2" d="M162.59,94.45a3.3,3.3,0,0,0,0-3.15,57.7,57.7,0,0,0-101.44,0,3.3,3.3,0,0,0,0,3.15,57.7,57.7,0,0,0,101.44,0Zm-50.72,22.79a24.37,24.37,0,1,1,24.37-24.37A24.37,24.37,0,0,1,111.87,117.24Z"/><path class="cls-2" d="M111.87,80.46a12.45,12.45,0,0,0-3,.36,6.44,6.44,0,0,1-9.08,9.08,12.42,12.42,0,1,0,12.06-9.44Z"/><text class="cls-3" transform="translate(49.75 171.16)">הזוחב היפצ</text></g></g></svg>